<?xml version="1.0" encoding="utf-8"?>
<!-- Generator: Adobe Illustrator 15.1.0, SVG Export Plug-In  -->
<!DOCTYPE svg PUBLIC "-//W3C//DTD SVG 1.1//EN" "http://www.w3.org/Graphics/SVG/1.1/DTD/svg11.dtd" [
	<!ENTITY ns_flows "http://ns.adobe.com/Flows/1.0/">
]>
<svg version="1.1"
	 xmlns="http://www.w3.org/2000/svg" xmlns:xlink="http://www.w3.org/1999/xlink" xmlns:a="http://ns.adobe.com/AdobeSVGViewerExtensions/3.0/"
	 x="0px" y="0px" width="120px" height="24px" viewBox="54 60 120 24" overflow="visible" enable-background="new 54 60 120 24"
	 xml:space="preserve">
<defs>
</defs>
<rect x="0.5" y="0.5" display="none" stroke="#FFFFFF" stroke-miterlimit="10" width="277" height="126"/>
<polygon fill="#FFFFFF" points="114.311,82.221 102.7,70.944 114.311,59.668 114.912,60.287 103.939,70.944 114.912,81.602 "/>
<polygon fill="#FFFFFF" points="72.264,64.792 71.707,64.234 63.313,72.627 54.922,64.234 54.364,64.792 62.757,73.185 
	54.364,81.576 54.922,82.135 63.313,73.741 71.707,82.135 72.264,81.576 63.872,73.185 "/>
<polygon fill="#FFFFFF" points="153.107,59.885 164.719,71.162 153.107,82.438 152.506,81.819 163.479,71.162 152.506,60.504 "/>
<path display="none" fill="#FFFFFF" d="M71.384,77.705c0,0.357-0.125,0.661-0.375,0.911l-1.821,1.821
	c-0.25,0.25-0.554,0.375-0.911,0.375s-0.661-0.125-0.911-0.375l-3.938-3.938l-3.938,3.938c-0.25,0.25-0.554,0.375-0.911,0.375
	s-0.661-0.125-0.911-0.375l-1.821-1.821c-0.25-0.25-0.375-0.554-0.375-0.911s0.125-0.661,0.375-0.911l3.938-3.938l-3.938-3.938
	c-0.25-0.25-0.375-0.554-0.375-0.911c0-0.357,0.125-0.661,0.375-0.911l1.821-1.821c0.25-0.25,0.554-0.375,0.911-0.375
	s0.661,0.125,0.911,0.375l3.938,3.938l3.938-3.938c0.25-0.25,0.553-0.375,0.911-0.375s0.661,0.125,0.911,0.375l1.821,1.821
	c0.25,0.25,0.375,0.554,0.375,0.911c0,0.357-0.125,0.661-0.375,0.911l-3.938,3.938l3.938,3.938
	C71.259,77.044,71.384,77.348,71.384,77.705z M111.938,81.066l-8.732-8.718c-0.331-0.331-0.496-0.735-0.496-1.212
	c0-0.478,0.166-0.882,0.496-1.212l8.732-8.719c0.331-0.331,0.735-0.496,1.212-0.496c0.478,0,0.881,0.166,1.212,0.496l1.004,1.004
	c0.331,0.331,0.495,0.735,0.495,1.212c0,0.478-0.164,0.881-0.495,1.212l-6.509,6.509l6.509,6.497
	c0.331,0.339,0.495,0.745,0.495,1.219c0,0.473-0.164,0.875-0.495,1.205l-1.004,1.004c-0.331,0.33-0.734,0.496-1.212,0.496
	C112.673,81.562,112.269,81.396,111.938,81.066L111.938,81.066z M164.719,71.143c0,0.464-0.165,0.87-0.496,1.219l-8.731,8.719
	c-0.331,0.331-0.732,0.496-1.205,0.496s-0.874-0.165-1.205-0.496l-1.019-1.004c-0.33-0.349-0.496-0.755-0.496-1.22
	c0-0.473,0.166-0.875,0.496-1.205l6.51-6.508l-6.51-6.496c-0.33-0.348-0.496-0.754-0.496-1.219c0-0.474,0.166-0.875,0.496-1.205
	l1.019-1.004c0.321-0.339,0.724-0.509,1.205-0.509s0.884,0.17,1.205,0.509l8.731,8.719C164.554,70.27,164.719,70.671,164.719,71.143
	L164.719,71.143z"/>
</svg>
